<?xml version="1.0" encoding="UTF-8"?>
<svg id="Layer_1" data-name="Layer 1" xmlns="http://www.w3.org/2000/svg" viewBox="0 0 2551.1811 2551.1811">
  <path d="M122.8008,109.2435h263.8774v57.7935h-97.666v255.813h-68.9932v-255.813h-97.2183v-57.7935Z"/>
  <path d="M382.6494,198.8456h59.5854l4.48,29.5684c5.6699-7.7632,12.3901-14.1821,20.1606-19.2642,7.7627-5.0752,16.5762-8.5825,26.4321-10.5283,9.8564-1.939,20.6084-1.8623,32.2568.2241v61.8252c-7.77-2.3872-16.1284-3.0591-25.0884-2.0161-8.9604,1.0498-17.4727,4.0322-25.5366,8.96-8.064,4.9282-14.5605,12.0967-19.4883,21.5049-4.9282,9.4077-7.3921,21.5811-7.3921,36.5127v97.2178h-65.4097v-224.0044Z"/>
  <path d="M688.6357,422.85l-4.9282-27.7764c-7.77,9.562-16.2051,17.0239-25.3125,22.4004-9.1143,5.376-21.1333,8.064-36.0649,8.064-14.042,0-26.5864-2.4639-37.6323-7.3921-11.0532-4.9282-19.7896-12.166-26.2085-21.7285-6.4263-9.5552-9.6323-21.0562-9.6323-34.4966,0-18.5156,6.7202-33.8945,20.1602-46.145,13.4404-12.2432,34.0488-19.8594,61.8252-22.8486l52.8652-6.272v-13.8882c0-5.376-2.541-10.4512-7.6162-15.2324-5.082-4.7739-12.6982-7.168-22.8481-7.168-9.2612,0-17.2485,2.3169-23.9688,6.9438-6.7202,4.6343-11.4243,11.5786-14.1123,20.8325l-55.5532-20.6084c6.2725-20.0063,17.6963-35.3154,34.2729-45.9209,16.5762-10.5981,37.2549-15.9043,62.0493-15.9043,30.4644,0,53.6841,7.6162,69.665,22.8486,15.9746,15.2319,23.9688,35.6934,23.9688,61.377v142.915h-60.9292ZM683.7075,327.4242l-41.665,4.9277c-8.3647,1.1973-14.7139,3.8081-19.04,7.8403-4.333,4.0322-6.4961,9.0371-6.4961,15.0083,0,5.6772,2.3867,10.458,7.168,14.3364,4.7739,3.8848,11.3472,5.8242,19.7124,5.8242,8.3584,0,15.6035-1.7153,21.7285-5.1523,6.1182-3.4302,10.752-8.3579,13.8882-14.7842,3.1362-6.4194,4.7041-14.4062,4.7041-23.9688v-4.0317Z"/>
  <path d="M796.1567,198.8456h59.1372l4.9282,24.6401c7.168-8.3579,15.8271-15.0781,25.9844-20.1602,10.1504-5.0752,21.2036-7.6162,33.1528-7.6162,17.3184,0,32.1025,3.7383,44.353,11.2002,12.2432,7.4692,21.5742,18.3682,28.0005,32.7046,6.4189,14.3364,9.6323,31.8086,9.6323,52.417v130.8188h-65.8574v-122.3066c0-15.2319-3.0659-26.6562-9.1841-34.2725-6.1255-7.6162-15.1626-11.4243-27.105-11.4243-12.25,0-21.5811,3.8853-28.0005,11.6484-6.4258,7.77-9.6318,19.1172-9.6318,34.0483v122.3066h-65.4097v-224.0044Z"/>
  <path d="M1098.1103,348.9286c1.1904,5.978,3.4307,10.6821,6.7207,14.1123,3.2822,3.437,7.3916,5.978,12.3193,7.6162,4.9287,1.645,9.9268,2.4639,15.0088,2.4639,9.2539,0,16.4219-1.792,21.5049-5.376,5.0742-3.584,7.6152-7.7632,7.6152-12.5444,0-5.0752-1.8682-8.96-5.5996-11.6484-3.7383-2.688-8.5889-4.7739-14.5605-6.272-5.9775-1.4907-12.25-2.9819-18.8164-4.48-7.4688-1.792-15.834-3.8779-25.0879-6.272-9.2617-2.3872-18.0752-5.9712-26.4326-10.7524-8.3652-4.7739-15.2324-11.123-20.6084-19.0405-5.376-7.9102-8.0645-17.8433-8.0645-29.7925,0-13.7344,3.7314-25.9072,11.2002-36.5127,7.4619-10.5981,18.0674-19.0405,31.8086-25.3125,13.7344-6.272,30.0166-9.4082,48.833-9.4082,22.9951,0,41.8887,4.7041,56.6729,14.1123s25.1592,22.7783,31.1367,40.0967l-57.3447,14.7842c-1.1973-3.8779-3.29-7.0137-6.2725-9.4077-2.9893-2.3872-6.5732-4.1025-10.752-5.1523-4.1865-1.043-8.5127-1.5679-12.9922-1.5679-8.0645,0-14.2666,1.5679-18.5928,4.7041-4.333,3.1357-6.4961,6.9438-6.4961,11.4238,0,2.9893.9658,5.5303,2.9121,7.6162,1.9395,2.0933,4.627,3.7383,8.0645,4.9282,3.4297,1.1973,7.4619,2.2402,12.0957,3.1362,4.6279.896,9.6328,2.0928,15.0088,3.584,9.2539,2.0933,18.5918,4.5571,28,7.3921,9.4082,2.8423,18.1445,6.7974,26.209,11.8721,8.0645,5.0825,14.5605,11.6484,19.4883,19.7124,4.9287,8.0645,7.5391,18.6694,7.8398,31.8091,0,13.146-3.7373,25.0884-11.2002,35.8403-7.4688,10.7524-18.2979,19.3418-32.4805,25.7607-14.1895,6.4263-31.7383,9.6323-52.6406,9.6323-24.7949,0-45.5498-5.0752-62.2734-15.2324-16.7305-10.1504-27.4824-25.6836-32.2568-46.5928l60.0332-15.2324Z"/>
  <path d="M1309.5688,176.4452c-12.251,0-22.1763-3.7314-29.7925-11.2007-7.6162-7.4619-11.4238-16.4219-11.4238-26.8804,0-10.752,3.8076-19.7822,11.4238-27.1045,7.6162-7.3149,17.5415-10.9761,29.7925-10.9761,11.9424,0,21.7979,3.6611,29.5684,10.9761,7.7627,7.3223,11.6484,16.3525,11.6484,27.1045,0,10.4585-3.8857,19.4185-11.6484,26.8804-7.7705,7.4692-17.626,11.2007-29.5684,11.2007ZM1276.416,198.8456h65.8569v224.0044h-65.8569v-224.0044Z"/>
  <path d="M1417.5346,198.8456v-62.7212h66.3057v62.7212h46.5928v57.793h-46.5928v80.6416c0,10.1572,2.3867,17.3257,7.168,21.5044,4.7744,4.186,10.752,6.3491,17.9209,6.4961,7.168.1543,14.3359-.5181,21.5039-2.0161v57.3452c-15.2324,2.6885-29.6455,3.4302-43.2324,2.2402-13.5947-1.1899-25.6143-4.8511-36.0654-10.9761-10.458-6.1182-18.6689-15.3022-24.6396-27.5527-5.9785-12.2432-8.9609-27.9233-8.9609-47.041v-80.6416h-31.3604v-57.793h31.3604Z"/>
  <path d="M124.8969,486.2435h69.4414v195.7803c0,13.4399,2.688,24.7944,8.0645,34.0483,5.376,9.2612,12.8379,16.2056,22.4004,20.8325,9.5552,4.6343,20.4541,6.9443,32.7046,6.9443,12.8384,0,24.1157-2.3101,33.8247-6.9443,9.7021-4.627,17.2485-11.5713,22.6245-20.8325,5.376-9.2539,8.064-20.6084,8.064-34.0483v-195.7803h69.4414v190.4038c0,21.5044-3.6611,40.0972-10.9761,55.7773-7.3223,15.6802-17.3252,28.7495-30.0166,39.2007-12.6982,10.458-27.1816,18.2988-43.457,23.5205-16.2822,5.2217-33.0825,7.8398-50.4009,7.8398-23.8984,0-45.7739-4.627-65.6333-13.8877-19.8662-9.2549-35.8408-23.2197-47.937-41.8892-12.0962-18.6621-18.1445-42.1826-18.1445-70.5615v-190.4038Z"/>
  <path d="M488.2636,725.9286c1.1899,5.978,3.4302,10.6821,6.7202,14.1123,3.2832,3.437,7.3921,5.978,12.3203,7.6162,4.9282,1.645,9.9263,2.4639,15.0083,2.4639,9.2544,0,16.4224-1.792,21.5044-5.376,5.0752-3.584,7.6162-7.7632,7.6162-12.5444,0-5.0752-1.8691-8.96-5.6001-11.6484-3.7383-2.688-8.5894-4.7739-14.5605-6.272-5.978-1.4907-12.25-2.9819-18.8164-4.48-7.4688-1.792-15.834-3.8779-25.0884-6.272-9.2612-2.3872-18.0742-5.9712-26.4326-10.7524-8.3647-4.7739-15.2319-11.123-20.6084-19.0405-5.376-7.9102-8.064-17.8433-8.064-29.7925,0-13.7344,3.731-25.9072,11.2002-36.5127,7.4619-10.5981,18.0674-19.0405,31.8086-25.3125,13.7344-6.272,30.0166-9.4082,48.833-9.4082,22.9956,0,41.8887,4.7041,56.6733,14.1123,14.7842,9.4082,25.1582,22.7783,31.1367,40.0967l-57.3452,14.7842c-1.1973-3.8779-3.29-7.0137-6.2725-9.4077-2.9888-2.3872-6.5728-4.1025-10.752-5.1523-4.186-1.043-8.5122-1.5679-12.9922-1.5679-8.0645,0-14.2666,1.5679-18.5928,4.7041-4.333,3.1357-6.4961,6.9438-6.4961,11.4238,0,2.9893.9663,5.5303,2.9121,7.6162,1.939,2.0933,4.6274,3.7383,8.0645,4.9282,3.4297,1.1973,7.4619,2.2402,12.0962,3.1362,4.627.896,9.6323,2.0928,15.0083,3.584,9.2539,2.0933,18.5923,4.5571,28.0005,7.3921,9.4082,2.8423,18.1445,6.7974,26.2085,11.8721,8.064,5.0825,14.5605,11.6484,19.4883,19.7124,4.9282,8.0645,7.5391,18.6694,7.8403,31.8091,0,13.146-3.7383,25.0884-11.2002,35.8403-7.4692,10.752-18.2983,19.3418-32.481,25.7607-14.189,6.4258-31.7383,9.6318-52.6406,9.6318-24.7949,0-45.5503-5.0752-62.2734-15.2324-16.7305-10.1494-27.4824-25.6831-32.2568-46.5923l60.0332-15.2324Z"/>
  <path d="M758.9961,802.9857c-22.7017,0-42.561-4.8506-59.5854-14.5596-17.0239-9.7021-30.3174-23.3667-39.8726-40.9932-9.562-17.6196-14.3364-38.228-14.3364-61.8252,0-22.0996,4.7041-41.665,14.1123-58.6895s22.4707-30.3105,39.2007-39.8726c16.7236-9.5552,35.687-14.3364,56.8975-14.3364,22.4004,0,41.812,4.6343,58.2412,13.8882,16.4224,9.2612,29.2676,22.1768,38.5288,38.7529,9.2539,16.5762,13.8882,35.9175,13.8882,58.0171,0,3.29-.1538,6.9443-.4482,10.9761-.3008,4.0322-.749,8.4424-1.3438,13.2163h-148.7393c1.4912,8.0645,4.4033,15.0083,8.7363,20.8325,4.3262,5.8242,9.7021,10.3042,16.1284,13.4404,6.4189,3.1357,13.6641,4.7041,21.7285,4.7041,9.2539,0,17.542-2.0161,24.8643-6.0483,7.3154-4.0317,12.9155-9.3311,16.8003-15.9043l58.2412,15.6802c-8.96,20.3145-22.3306,35.8413-40.0967,46.5933-17.7734,10.752-38.7529,16.1279-62.9453,16.1279ZM794.3886,664.9994c0-7.4624-1.792-14.0356-5.376-19.7124-3.584-5.6704-8.2183-10.0806-13.8882-13.2163-5.6772-3.1362-11.9492-4.7041-18.8164-4.7041-6.5732.3008-12.7686,2.0161-18.5923,5.1519-5.8242,3.1362-10.6055,7.4692-14.3364,12.9922-3.7383,5.5303-6.0483,12.0264-6.9443,19.4888h77.9536Z"/>
  <path d="M910.9389,575.8456h59.5854l4.48,29.5684c5.6699-7.7632,12.3901-14.1821,20.1606-19.2642,7.7627-5.0752,16.5762-8.5825,26.4326-10.5283,9.8555-1.939,20.6084-1.8623,32.2568.2241v61.8252c-7.7705-2.3872-16.1289-3.0591-25.0889-2.0161-8.96,1.0498-17.4727,4.0322-25.5371,8.96-8.0635,4.9282-14.5601,12.0967-19.4878,21.5049-4.9282,9.4077-7.3921,21.5811-7.3921,36.5127v97.2178h-65.4097v-224.0044Z"/>
  <path d="M392.8066,863.2435v313.6064h-69.8896l-127.2344-203.8438v203.8438h-68.9937v-313.6064h69.4414l127.2349,204.7402v-204.7402h69.4414Z"/>
  <path d="M552.1596,1179.9857c-21.8057,0-41.3711-4.627-58.6895-13.8877-17.3252-9.2549-30.9126-22.5479-40.769-39.873-9.856-17.3184-14.7842-37.7803-14.7842-61.377s5.0752-43.9756,15.2324-61.1533c10.1504-17.1719,23.8916-30.4648,41.2168-39.873,17.3184-9.4082,36.8838-14.1123,58.6895-14.1123,22.0991,0,41.8115,4.7041,59.1372,14.1123,17.3184,9.4082,31.0596,22.7012,41.2168,39.873,10.1499,17.1777,15.2319,37.5625,15.2319,61.1533s-5.1519,44.0586-15.4561,61.377c-10.3042,17.3252-24.2695,30.6182-41.8887,39.873-17.6265,9.2607-37.3389,13.8877-59.1372,13.8877ZM552.1596,1120.849c7.7627,0,15.1553-2.0859,22.1763-6.2725,7.0142-4.1787,12.8384-10.374,17.4722-18.5918,4.6274-8.2119,6.9443-18.5928,6.9443-31.1367,0-12.2432-2.1699-22.5479-6.4961-30.9131-4.333-8.3584-9.9331-14.6299-16.8003-18.8164-6.8745-4.1787-14.3364-6.2725-22.4004-6.2725s-15.5337,2.0938-22.4009,6.2725c-6.874,4.1865-12.25,10.3818-16.1279,18.5928-3.8853,8.2178-5.8242,18.5918-5.8242,31.1367,0,12.25,1.8618,22.5537,5.6001,30.9121,3.731,8.3652,9.0303,14.6377,15.9043,18.8164,6.8672,4.1865,14.1821,6.2725,21.9526,6.2725Z"/>
  <path d="M750.7285,930.4447c-12.25,0-22.1763-3.7305-29.7925-11.2002-7.6162-7.4619-11.4243-16.4219-11.4243-26.8799,0-10.7529,3.8081-19.7832,11.4243-27.1045,7.6162-7.3154,17.5425-10.9766,29.7925-10.9766,11.9424,0,21.7988,3.6611,29.5688,10.9766,7.7632,7.3213,11.6479,16.3516,11.6479,27.1045,0,10.458-3.8848,19.418-11.6479,26.8799-7.77,7.4697-17.6265,11.2002-29.5688,11.2002ZM717.5761,952.8451h65.8569v224.0049h-65.8569v-224.0049Z"/>
  <path d="M890.9516,1102.9281c1.1899,5.9785,3.4302,10.6826,6.7202,14.1123,3.2832,3.4375,7.3921,5.9785,12.3203,7.6162,4.9282,1.6455,9.9263,2.4639,15.0083,2.4639,9.2544,0,16.4224-1.792,21.5044-5.376,5.0752-3.584,7.6162-7.7627,7.6162-12.5439,0-5.0752-1.8691-8.96-5.6001-11.6484-3.7383-2.6875-8.5894-4.7734-14.5605-6.2715-5.978-1.4912-12.25-2.9824-18.8164-4.4805-7.4688-1.792-15.834-3.8779-25.0884-6.2725-9.2612-2.3867-18.0742-5.9707-26.4326-10.752-8.3647-4.7744-15.2319-11.123-20.6084-19.04-5.376-7.9102-8.064-17.8438-8.064-29.793,0-13.7344,3.731-25.9072,11.2002-36.5127,7.4619-10.5986,18.0674-19.04,31.8086-25.3125,13.7344-6.2725,30.0166-9.4082,48.833-9.4082,22.9956,0,41.8887,4.7041,56.6733,14.1123,14.7842,9.4082,25.1592,22.7783,31.1357,40.0967l-57.3442,14.7842c-1.1973-3.8779-3.29-7.0137-6.2725-9.4082-2.9888-2.3867-6.5728-4.1016-10.752-5.1514-4.186-1.0439-8.5122-1.5684-12.9922-1.5684-8.0645,0-14.2666,1.5684-18.5928,4.7041-4.333,3.1357-6.4961,6.9443-6.4961,11.4238,0,2.9893.9663,5.5303,2.9121,7.6162,1.939,2.0928,4.6274,3.7383,8.0645,4.9287,3.4297,1.1963,7.4619,2.2393,12.0962,3.1357,4.627.8955,9.6323,2.0928,15.0083,3.584,9.2539,2.0928,18.5923,4.5566,28.0005,7.3926,9.4082,2.8418,18.1445,6.7969,26.2085,11.8721,8.064,5.082,14.5601,11.6484,19.4878,19.7119,4.9297,8.0645,7.5391,18.6699,7.8398,31.8086,0,13.1465-3.7363,25.0889-11.1992,35.8408-7.4692,10.752-18.2983,19.3418-32.481,25.7607-14.189,6.4258-31.7383,9.6318-52.6406,9.6318-24.7949,0-45.5503-5.0752-62.2734-15.2324-16.7305-10.1494-27.4824-25.6826-32.2568-46.5928l60.0332-15.2324Z"/>
  <path d="M1174.8662,1179.9857c-22.7012,0-42.5605-4.8506-59.585-14.5596-17.0244-9.7021-30.3174-23.3672-39.873-40.9932-9.5615-17.6191-14.3359-38.2275-14.3359-61.8252,0-22.0996,4.7041-41.665,14.1123-58.6895,9.4082-17.0244,22.4707-30.3105,39.2012-39.873,16.7227-9.5547,35.6865-14.3359,56.8965-14.3359,22.4004,0,41.8125,4.6338,58.2412,13.8887,16.4229,9.2607,29.2676,22.1758,38.5293,38.752,9.2539,16.5771,13.8877,35.918,13.8877,58.0176,0,3.29-.1533,6.9443-.4473,10.9766-.3018,4.0322-.749,8.4414-1.3447,13.2158h-148.7383c1.4902,8.0645,4.4023,15.0088,8.7354,20.833,4.3262,5.8232,9.7031,10.3037,16.1289,13.4395,6.4189,3.1367,13.6641,4.7041,21.7285,4.7041,9.2539,0,17.542-2.0156,24.8643-6.0479,7.3154-4.0322,12.915-9.3311,16.8008-15.9043l58.2412,15.6807c-8.9609,20.3145-22.3311,35.8408-40.0977,46.5928-17.7725,10.752-38.752,16.1279-62.9453,16.1279ZM1210.2597,1041.9994c0-7.4619-1.792-14.0352-5.376-19.7129-3.585-5.6699-8.2188-10.0801-13.8887-13.2158-5.6768-3.1357-11.9492-4.7041-18.8164-4.7041-6.5732.3008-12.7686,2.0156-18.5928,5.1523-5.8242,3.1357-10.6045,7.4688-14.3359,12.9922-3.7383,5.5303-6.0479,12.0264-6.9443,19.4883h77.9541Z"/>
  <path d="M354.2778,1298.0365h-158.5952v68.9941h118.7222v55.5527h-118.7222v73.4736h158.5952v57.793H126.6889v-313.6064h227.5889v57.793Z"/>
  <path d="M382.9468,1329.8451h76.1616l42.561,64.9619,41.6646-64.9619h77.0576l-79.7456,111.1064,79.7456,112.8984h-77.0576l-41.6646-65.4092-42.561,65.4092h-76.1616l78.8496-112.8984-78.8496-111.1064Z"/>
  <path d="M711.7842,1519.8011l8.9604-.8955v124.5459h-65.4097v-313.6064h59.1372l4.0322,28.2246c5.6699-8.6592,14.3364-16.0508,25.9844-22.1758,11.6484-6.1182,24.7876-9.1846,39.4248-9.1846,18.8164,0,35.54,4.7041,50.1772,14.1123,14.6304,9.4082,26.2085,22.7012,34.7207,39.873,8.5122,17.1777,12.7681,37.5625,12.7681,61.1533s-4.186,43.9814-12.5439,61.1533c-8.3652,17.1777-19.9365,30.4639-34.7207,39.8721-14.7847,9.4082-31.585,14.1123-50.4014,14.1123-17.0244,0-31.7383-3.7305-44.1289-11.2002-12.397-7.4619-21.7285-16.1279-28.0005-25.9844ZM811.2422,1441.848c0-16.4229-4.1089-29.6387-12.3203-39.6494-8.2183-10.0029-19.04-15.0078-32.4805-15.0078-8.666,0-16.5063,2.1699-23.5205,6.4961-7.021,4.333-12.4741,10.458-16.3525,18.3682-3.8848,7.917-5.8237,17.8506-5.8237,29.793,0,11.6475,1.939,21.5811,5.8237,29.792,3.8784,8.2188,9.3315,14.4902,16.3525,18.8164,7.0142,4.333,14.8545,6.4961,23.5205,6.4961,13.4404,0,24.2622-5.0752,32.4805-15.2324,8.2114-10.1494,12.3203-23.4434,12.3203-39.8721Z"/>
  <path d="M1024.9394,1556.9857c-22.7012,0-42.5605-4.8506-59.585-14.5596-17.0239-9.7021-30.3174-23.3672-39.8726-40.9932-9.562-17.6191-14.3364-38.2275-14.3364-61.8252,0-22.0996,4.7041-41.665,14.1123-58.6895s22.4707-30.3105,39.2007-39.873c16.7236-9.5547,35.687-14.3359,56.897-14.3359,22.4004,0,41.8125,4.6338,58.2412,13.8887,16.4229,9.2607,29.2676,22.1758,38.5293,38.752,9.2539,16.5771,13.8877,35.918,13.8877,58.0176,0,3.29-.1533,6.9443-.4473,10.9766-.3018,4.0322-.749,8.4414-1.3447,13.2158h-148.7388c1.4912,8.0645,4.4033,15.0088,8.7363,20.833,4.3262,5.8232,9.7026,10.3037,16.1284,13.4395,6.4189,3.1367,13.6641,4.7041,21.7285,4.7041,9.2539,0,17.542-2.0156,24.8643-6.0479,7.3154-4.0322,12.915-9.3311,16.8008-15.9043l58.2412,15.6807c-8.9609,20.3145-22.3311,35.8408-40.0977,46.5928-17.7725,10.752-38.752,16.1279-62.9453,16.1279ZM1060.333,1418.9994c0-7.4619-1.792-14.0352-5.376-19.7129-3.585-5.6699-8.2188-10.0801-13.8887-13.2158-5.6768-3.1357-11.9492-4.7041-18.8164-4.7041-6.5732.3008-12.7686,2.0156-18.5928,5.1523-5.8237,3.1357-10.605,7.4688-14.3359,12.9922-3.7383,5.5303-6.0483,12.0264-6.9443,19.4883h77.9541Z"/>
  <path d="M1171.8828,1329.8451h59.585l4.4805,29.5693c5.6699-7.7637,12.3896-14.1826,20.1602-19.2646,7.7627-5.0752,16.5762-8.582,26.4321-10.5283,9.8555-1.9395,20.6084-1.8623,32.2568.2236v61.8252c-7.7705-2.3867-16.1289-3.0586-25.0889-2.0156-8.96,1.0498-17.4722,4.0322-25.5366,8.96-8.0635,4.9287-14.5596,12.0967-19.4883,21.5049-4.9277,9.4082-7.3916,21.5811-7.3916,36.5127v97.2178h-65.4092v-224.0049Z"/>
  <path d="M1389.1626,1307.4447c-12.251,0-22.1768-3.7305-29.793-11.2002-7.6162-7.4619-11.4238-16.4219-11.4238-26.8799,0-10.7529,3.8076-19.7832,11.4238-27.1045,7.6162-7.3154,17.542-10.9766,29.793-10.9766,11.9424,0,21.7979,3.6611,29.5684,10.9766,7.7627,7.3213,11.6484,16.3516,11.6484,27.1045,0,10.458-3.8857,19.418-11.6484,26.8799-7.7705,7.4697-17.626,11.2002-29.5684,11.2002ZM1356.0093,1329.8451h65.8574v224.0049h-65.8574v-224.0049Z"/>
  <path d="M1583.146,1556.9857c-22.7012,0-42.5605-4.8506-59.585-14.5596-17.0244-9.7021-30.3174-23.3672-39.873-40.9932-9.5615-17.6191-14.3359-38.2275-14.3359-61.8252,0-22.0996,4.7041-41.665,14.1123-58.6895s22.4707-30.3105,39.2012-39.873c16.7227-9.5547,35.6865-14.3359,56.8965-14.3359,22.4004,0,41.8125,4.6338,58.2412,13.8887,16.4229,9.2607,29.2676,22.1758,38.5293,38.752,9.2539,16.5771,13.8877,35.918,13.8877,58.0176,0,3.29-.1533,6.9443-.4473,10.9766-.3018,4.0322-.749,8.4414-1.3447,13.2158h-148.7383c1.4902,8.0645,4.4023,15.0088,8.7354,20.833,4.3262,5.8232,9.7031,10.3037,16.1289,13.4395,6.4189,3.1367,13.6641,4.7041,21.7285,4.7041,9.2539,0,17.542-2.0156,24.8643-6.0479,7.3154-4.0322,12.915-9.3311,16.8008-15.9043l58.2412,15.6807c-8.9609,20.3145-22.3311,35.8408-40.0977,46.5928-17.7725,10.752-38.752,16.1279-62.9453,16.1279ZM1618.5395,1418.9994c0-7.4619-1.792-14.0352-5.376-19.7129-3.585-5.6699-8.2188-10.0801-13.8887-13.2158-5.6768-3.1357-11.9492-4.7041-18.8164-4.7041-6.5732.3008-12.7686,2.0156-18.5928,5.1523-5.8242,3.1357-10.6045,7.4688-14.3359,12.9922-3.7383,5.5303-6.0479,12.0264-6.9443,19.4883h77.9541Z"/>
  <path d="M1730.0893,1329.8451h59.1367l4.9287,24.6406c7.168-8.3584,15.8271-15.0781,25.9844-20.1602,10.1494-5.0752,21.2031-7.6162,33.1523-7.6162,17.3184,0,32.1025,3.7383,44.3525,11.2002,12.2432,7.4688,21.5752,18.3682,28.001,32.7051,6.4189,14.3359,9.6318,31.8086,9.6318,52.417v130.8184h-65.8574v-122.3066c0-15.2324-3.0654-26.6562-9.1836-34.2725-6.125-7.6162-15.1621-11.4248-27.1045-11.4248-12.251,0-21.582,3.8857-28.001,11.6484-6.4258,7.7705-9.6318,19.1172-9.6318,34.0488v122.3066h-65.4092v-224.0049Z"/>
  <path d="M2083.1147,1556.9857c-21.8057.2939-41.0703-4.3262-57.793-13.8877-16.7305-9.5557-29.793-22.9961-39.2012-40.3213-9.4082-17.3184-14.1123-37.4785-14.1123-60.4814,0-22.6943,4.7744-42.7842,14.3359-60.2568,9.5557-17.4727,22.625-31.0596,39.2012-40.7686,16.5762-9.7021,35.7637-14.5605,57.5693-14.5605,24.7871,0,46.5156,6.125,65.1855,18.3682,18.6621,12.25,31.7314,29.2744,39.2002,51.0732l-61.8252,15.2324c-2.9893-8.0645-7.9941-14.3359-15.0078-18.8164-7.0215-4.4805-14.8613-6.7207-23.5205-6.7207-8.96,0-16.8779,2.3945-23.7451,7.1689-6.874,4.7812-12.1729,11.501-15.9043,20.1602-3.7373,8.666-5.5996,18.3682-5.5996,29.1201,0,16.7305,4.1787,30.1709,12.5439,40.3213,8.3584,10.1572,19.2646,15.2324,32.7051,15.2324,8.6592,0,16.499-2.1631,23.5205-6.4961,7.0137-4.3262,12.3203-10.5283,15.9043-18.5928l61.377,15.2324c-7.7705,20.9092-21.0566,37.5625-39.873,49.9531-18.8164,12.3975-40.4746,18.7393-64.9609,19.04Z"/>
  <path d="M2331.3061,1556.9857c-22.7012,0-42.5605-4.8506-59.585-14.5596-17.0244-9.7021-30.3174-23.3672-39.873-40.9932-9.5615-17.6191-14.3359-38.2275-14.3359-61.8252,0-22.0996,4.7041-41.665,14.1123-58.6895s22.4707-30.3105,39.2012-39.873c16.7227-9.5547,35.6865-14.3359,56.8965-14.3359,22.4004,0,41.8125,4.6338,58.2412,13.8887,16.4229,9.2607,29.2676,22.1758,38.5293,38.752,9.2539,16.5771,13.8877,35.918,13.8877,58.0176,0,3.29-.1533,6.9443-.4473,10.9766-.3018,4.0322-.749,8.4414-1.3447,13.2158h-148.7383c1.4902,8.0645,4.4023,15.0088,8.7354,20.833,4.3262,5.8232,9.7031,10.3037,16.1289,13.4395,6.4189,3.1367,13.6641,4.7041,21.7285,4.7041,9.2539,0,17.542-2.0156,24.8643-6.0479,7.3154-4.0322,12.915-9.3311,16.8008-15.9043l58.2412,15.6807c-8.9609,20.3145-22.3311,35.8408-40.0977,46.5928-17.7725,10.752-38.752,16.1279-62.9453,16.1279ZM2366.6997,1418.9994c0-7.4619-1.792-14.0352-5.376-19.7129-3.585-5.6699-8.2188-10.0801-13.8887-13.2158-5.6768-3.1357-11.9492-4.7041-18.8164-4.7041-6.5732.3008-12.7686,2.0156-18.5928,5.1523-5.8242,3.1357-10.6045,7.4688-14.3359,12.9922-3.7383,5.5303-6.0479,12.0264-6.9443,19.4883h77.9541Z"/>
  <path d="M179.5542,1838.5599c1.4912,8.666,4.7041,15.9043,9.6323,21.7285s11.123,10.0801,18.5923,12.7686c7.4619,2.6875,15.8271,4.0322,25.0884,4.0322,15.8276,0,27.9238-3.4307,36.2891-10.3047,8.3579-6.8672,12.5439-15.3789,12.5439-25.5361,0-8.3584-2.541-15.1553-7.6162-20.3848-5.082-5.2217-12.0962-9.6318-21.0562-13.2158-8.9604-3.584-19.2646-7.1689-30.9126-10.7529-12.2505-3.2832-24.3467-7.0137-36.2891-11.2002-11.9492-4.1787-22.9253-9.5547-32.9287-16.1279-10.0098-6.5664-17.9971-15.0781-23.9683-25.5361-5.978-10.4521-8.813-23.5908-8.5122-39.4248,0-19.1113,4.9282-35.54,14.7842-49.2812,9.8564-13.7344,23.1426-24.0391,39.873-30.9131,16.7231-6.8672,36.1348-10.3037,58.2412-10.3037,19.4111,0,36.7368,2.7646,51.9688,8.2881,15.2324,5.5303,27.9238,13.7412,38.0811,24.6406,10.1499,10.9062,17.4722,24.1221,21.9521,39.6484l-63.6172,14.3359c-1.498-6.5654-4.5571-12.166-9.1841-16.7998-4.6343-4.627-10.2344-8.0645-16.8003-10.3047-6.5732-2.2393-13.2935-3.5068-20.1606-3.8076-8.3647,0-15.9043,1.3438-22.624,4.0322-6.7202,2.6875-12.0967,6.5732-16.1284,11.6484-4.0322,5.082-6.0483,11.0527-6.0483,17.9199,0,7.168,2.3101,13.0693,6.9443,17.6963,4.627,4.6338,10.8989,8.666,18.8164,12.0967,7.9102,3.4365,16.8003,6.6494,26.6562,9.6318,12.2432,3.8848,24.7104,8.0645,37.4087,12.5439,12.6914,4.4805,24.4165,10.2344,35.1689,17.249,10.7524,7.0205,19.4116,15.9814,25.9844,26.8799,6.5664,10.9062,9.8564,24.417,9.8564,40.5449,0,17.627-4.186,33.4541-12.5444,47.4893-8.3652,14.042-20.9863,25.2422-37.8569,33.6006-16.877,8.3652-38.1577,12.5439-63.8413,12.5439-21.21,0-40.3975-3.0654-57.5688-9.1836-17.1782-6.1182-31.2905-15.2324-42.3369-27.3291-11.0532-12.0957-18.3682-26.6562-21.9526-43.6807l64.0654-15.2324Z"/>
  <path d="M599.2016,1930.85h-59.5854l-4.48-25.0889c-7.168,8.667-15.834,15.5332-25.9844,20.6084-10.1572,5.0752-21.2104,7.6162-33.1528,7.6162-16.73,0-31.2905-3.7305-43.6807-11.2002-12.3975-7.4619-21.9526-18.4385-28.6729-32.9287-6.7197-14.4834-10.0801-31.8779-10.0801-52.1924v-130.8193h65.8574v122.7549c0,14.6377,3.0591,25.9141,9.1841,33.8242,6.1182,7.918,15.1553,11.873,27.1045,11.873,12.2432,0,21.6514-3.9551,28.2246-11.873,6.5664-7.9102,9.8564-19.4883,9.8564-34.7207v-121.8584h65.4092v224.0049Z"/>
  <path d="M650.9287,1706.8451h59.5854l4.48,29.5693c5.6699-7.7637,12.3901-14.1826,20.1606-19.2646,7.7627-5.0752,16.5762-8.582,26.4321-10.5283,9.8564-1.9395,20.6084-1.8623,32.2568.2236v61.8252c-7.77-2.3867-16.1284-3.0586-25.0884-2.0156-8.9604,1.0498-17.4727,4.0322-25.5366,8.96-8.064,4.9287-14.5605,12.0967-19.4883,21.5049-4.9282,9.4082-7.3921,21.5811-7.3921,36.5127v97.2178h-65.4097v-224.0049Z"/>
  <path d="M880.7529,1706.8451l47.4888,146.9473,47.4893-146.9473h70.3374l-81.5376,224.0049h-73.0254l-81.0898-224.0049h70.3374Z"/>
  <path d="M1175.0898,1933.9857c-22.7012,0-42.5605-4.8506-59.585-14.5596-17.0244-9.7021-30.3174-23.3672-39.873-40.9932-9.5615-17.6191-14.3359-38.2275-14.3359-61.8252,0-22.0996,4.7041-41.665,14.1123-58.6895s22.4707-30.3105,39.2012-39.873c16.7227-9.5547,35.6865-14.3359,56.8965-14.3359,22.4004,0,41.8125,4.6338,58.2412,13.8887,16.4229,9.2607,29.2676,22.1758,38.5293,38.752,9.2539,16.5771,13.8877,35.918,13.8877,58.0176,0,3.29-.1533,6.9443-.4473,10.9766-.3018,4.0322-.749,8.4414-1.3447,13.2158h-148.7383c1.4902,8.0645,4.4023,15.0088,8.7354,20.833,4.3262,5.8232,9.7031,10.3037,16.1289,13.4395,6.4189,3.1367,13.6641,4.7041,21.7285,4.7041,9.2539,0,17.542-2.0156,24.8643-6.0479,7.3154-4.0322,12.915-9.3311,16.8008-15.9043l58.2412,15.6807c-8.9609,20.3145-22.3311,35.8408-40.0977,46.5928-17.7725,10.752-38.752,16.1279-62.9453,16.1279ZM1210.4834,1795.9994c0-7.4619-1.792-14.0352-5.376-19.7129-3.585-5.6699-8.2188-10.0801-13.8887-13.2158-5.6768-3.1357-11.9492-4.7041-18.8164-4.7041-6.5732.3008-12.7686,2.0156-18.5928,5.1523-5.8242,3.1357-10.6045,7.4688-14.3359,12.9922-3.7383,5.5303-6.0479,12.0264-6.9443,19.4883h77.9541Z"/>
  <path d="M1468.5327,1706.8451h71.2334l-133.0596,313.6064h-66.7529l44.3525-99.9062-89.1533-213.7002h73.4736l50.1768,133.9551,49.7295-133.9551Z"/>
</svg>